<svg width="24" height="24" viewBox="0 0 24 24" fill="none" xmlns="http://www.w3.org/2000/svg">
<path d="M19.083 3.00018C20.1396 3.00018 21 3.88552 21 4.97389V6.35243C21 6.879 20.7903 7.39259 20.4249 7.76064L14.4139 13.8412V18.4218C14.4139 18.7009 14.2564 18.953 14.0125 19.0699L10.1237 20.9333C10.0292 20.9787 9.92932 21 9.83122 21C9.56933 21 9.31823 20.847 9.20034 20.5865C9.03924 20.2268 9.18954 19.8013 9.53783 19.6344L13.0235 17.9648V13.5418C13.0235 13.3499 13.0991 13.1654 13.2323 13.031L19.452 6.73809C19.5528 6.63704 19.6095 6.49612 19.6095 6.35243V4.97389C19.6095 4.6763 19.3737 4.43249 19.083 4.43249H11.0741C10.6907 4.43249 10.3793 4.11172 10.3793 3.71587C10.3793 3.32187 10.6907 3.00018 11.0741 3.00018H19.083ZM7.69611 3C8.0795 3 8.39089 3.32516 8.39089 3.72436C8.39089 4.12355 8.0795 4.44777 7.69611 4.44777H4.91606C4.62627 4.44777 4.38957 4.69422 4.38957 4.99502V6.41937C4.38957 6.55806 4.44087 6.69206 4.53177 6.79326L10.2584 13.1607C10.3799 13.2956 10.4465 13.4718 10.4465 13.6554V17.2407C10.4465 17.6389 10.1351 17.9631 9.75167 17.9631C9.36827 17.9631 9.05688 17.6389 9.05688 17.2407V13.9412L3.51749 7.78375C3.1836 7.41173 3 6.9282 3 6.41937V4.99502C3 3.8949 3.85948 3 4.91606 3H7.69611Z" fill="#202020"/>
</svg>
